{
  "accessors": [
    {
      "bufferView": 2,
      "componentType": 5126,
      "count": 29674,
      "max": [
        1.4654146432876587,
        1.5351150035858154,
        0.3404664993286133
      ],
      "min": [
        1.1909918785095215,
        1.3783490657806396,
        -0.03562861680984497
      ],
      "type": "VEC3"
    },
    {
      "bufferView": 2,
      "byteOffset": 356088,
      "componentType": 5126,
      "count": 29674,
      "max": [
        0.9999630451202393,
        0.9999005198478699,
        0.999989926815033
      ],
      "min": [
        -0.9999435544013977,
        -0.995966911315918,
        -0.9985470771789551
      ],
      "type": "VEC3"
    },
    {
      "bufferView": 3,
      "componentType": 5126,
      "count": 29674,
      "max": [
        0.12156862765550613,
        0.8156862854957581,
        0.21960784494876862,
        1.0
      ],
      "min": [
        0.0,
        0.003921568859368563,
        0.0,
        1.0
      ],
      "type": "VEC4"
    },
    {
      "bufferView": 1,
      "componentType": 5126,
      "count": 29674,
      "max": [
        1.0,
        1.0
      ],
      "min": [
        0.0,
        0.0
      ],
      "type": "VEC2"
    },
    {
      "bufferView": 1,
      "byteOffset": 237392,
      "componentType": 5126,
      "count": 29674,
      "max": [
        0.0,
        0.0
      ],
      "min": [
        0.0,
        0.0
      ],
      "type": "VEC2"
    },
    {
      "bufferView": 1,
      "byteOffset": 474784,
      "componentType": 5126,
      "count": 29674,
      "max": [
        0.008616547100245953,
        0.008624344132840633
      ],
      "min": [
        -0.008616547100245953,
        -0.008624344132840633
      ],
      "type": "VEC2"
    },
    {
      "bufferView": 1,
      "byteOffset": 712176,
      "componentType": 5126,
      "count": 29674,
      "max": [
        0.008616914041340351,
        0.0
      ],
      "min": [
        -0.008616914041340351,
        0.0
      ],
      "type": "VEC2"
    },
    {
      "bufferView": 0,
      "componentType": 5125,
      "count": 79164,
      "type": "SCALAR"
    },
    {
      "bufferView": 2,
      "byteOffset": 712176,
      "componentType": 5126,
      "count": 15832,
      "max": [
        1.4322659969329834,
        1.5281180143356323,
        0.33945709466934204
      ],
      "min": [
        1.1911358833312988,
        1.4064604043960571,
        -0.016169657930731773
      ],
      "type": "VEC3"
    },
    {
      "bufferView": 2,
      "byteOffset": 902160,
      "componentType": 5126,
      "count": 15832,
      "max": [
        0.9999380111694336,
        0.8567572832107544,
        0.9992485642433167
      ],
      "min": [
        -0.9998480677604675,
        -0.8525710105895996,
        -0.9996083974838257
      ],
      "type": "VEC3"
    },
    {
      "bufferView": 3,
      "byteOffset": 474784,
      "componentType": 5126,
      "count": 15832,
      "max": [
        0.0,
        0.05098039284348488,
        0.800000011920929,
        1.0
      ],
      "min": [
        0.0,
        0.0,
        0.0,
        0.0
      ],
      "type": "VEC4"
    },
    {
      "bufferView": 1,
      "byteOffset": 949568,
      "componentType": 5126,
      "count": 15832,
      "max": [
        292.2686767578125,
        1.0
      ],
      "min": [
        0.0,
        0.0
      ],
      "type": "VEC2"
    },
    {
      "bufferView": 1,
      "byteOffset": 1076224,
      "componentType": 5126,
      "count": 15832,
      "max": [
        292.2686767578125,
        1.0
      ],
      "min": [
        0.0,
        0.0
      ],
      "type": "VEC2"
    },
    {
      "bufferView": 0,
      "byteOffset": 316656,
      "componentType": 5125,
      "count": 42012,
      "type": "SCALAR"
    },
    {
      "bufferView": 2,
      "byteOffset": 1092144,
      "componentType": 5126,
      "count": 28348,
      "max": [
        2.1959502696990967,
        2.174661636352539,
        1.4741182327270508
      ],
      "min": [
        0.6206280589103699,
        -0.060596585273742676,
        -0.4708949029445648
      ],
      "type": "VEC3"
    },
    {
      "bufferView": 2,
      "byteOffset": 1432320,
      "componentType": 5126,
      "count": 28348,
      "max": [
        0.9998382925987244,
        0.9988084435462952,
        0.9997439980506897
      ],
      "min": [
        -0.9999240636825562,
        -0.998027503490448,
        -0.9999442100524902
      ],
      "type": "VEC3"
    },
    {
      "bufferView": 3,
      "byteOffset": 728096,
      "componentType": 5126,
      "count": 28348,
      "max": [
        0.1411764770746231,
        0.4901960790157318,
        0.5411764979362488,
        1.0
      ],
      "min": [
        0.0,
        0.003921568859368563,
        0.0,
        1.0
      ],
      "type": "VEC4"
    },
    {
      "bufferView": 1,
      "byteOffset": 1202880,
      "componentType": 5126,
      "count": 28348,
      "max": [
        1.0,
        1.0
      ],
      "min": [
        0.0,
        0.0
      ],
      "type": "VEC2"
    },
    {
      "bufferView": 1,
      "byteOffset": 1429664,
      "componentType": 5126,
      "count": 28348,
      "max": [
        1.0,
        1.0
      ],
      "min": [
        0.0,
        0.0
      ],
      "type": "VEC2"
    },
    {
      "bufferView": 0,
      "byteOffset": 484704,
      "componentType": 5125,
      "count": 63996,
      "type": "SCALAR"
    },
    {
      "bufferView": 2,
      "byteOffset": 1772496,
      "componentType": 5126,
      "count": 16312,
      "max": [
        1.7782033681869507,
        1.6922647953033447,
        0.3442251980304718
      ],
      "min": [
        1.1858505010604858,
        1.1596028804779053,
        -0.22411993145942688
      ],
      "type": "VEC3"
    },
    {
      "bufferView": 2,
      "byteOffset": 1968240,
      "componentType": 5126,
      "count": 16312,
      "max": [
        0.9993327856063843,
        0.9996622204780579,
        0.9998897910118103
      ],
      "min": [
        -0.9999698400497437,
        -0.9727052450180054,
        -0.9989099502563477
      ],
      "type": "VEC3"
    },
    {
      "bufferView": 3,
      "byteOffset": 1181664,
      "componentType": 5126,
      "count": 16312,
      "max": [
        0.2862745225429535,
        0.7921568751335144,
        0.3176470696926117,
        1.0
      ],
      "min": [
        0.0,
        0.0,
        0.0,
        1.0
      ],
      "type": "VEC4"
    },
    {
      "bufferView": 1,
      "byteOffset": 1656448,
      "componentType": 5126,
      "count": 16312,
      "max": [
        1.0,
        1.0
      ],
      "min": [
        0.0,
        0.0
      ],
      "type": "VEC2"
    },
    {
      "bufferView": 1,
      "byteOffset": 1786944,
      "componentType": 5126,
      "count": 16312,
      "max": [
        0.0,
        0.0
      ],
      "min": [
        0.0,
        0.0
      ],
      "type": "VEC2"
    },
    {
      "bufferView": 1,
      "byteOffset": 1917440,
      "componentType": 5126,
      "count": 16312,
      "max": [
        0.043268389999866486,
        0.043272361159324646
      ],
      "min": [
        -0.043268389999866486,
        -0.043272361159324646
      ],
      "type": "VEC2"
    },
    {
      "bufferView": 1,
      "byteOffset": 2047936,
      "componentType": 5126,
      "count": 16312,
      "max": [
        0.04318733140826225,
        0.0
      ],
      "min": [
        -0.04318733140826225,
        0.0
      ],
      "type": "VEC2"
    },
    {
      "bufferView": 0,
      "byteOffset": 740688,
      "componentType": 5125,
      "count": 40104,
      "type": "SCALAR"
    },
    {
      "bufferView": 2,
      "byteOffset": 2163984,
      "componentType": 5126,
      "count": 65532,
      "max": [
        2.5590689182281494,
        1.8909492492675781,
        1.5040005445480347
      ],
      "min": [
        0.6848984956741333,
        -0.3095036447048187,
        -0.8942241668701172
      ],
      "type": "VEC3"
    },
    {
      "bufferView": 2,
      "byteOffset": 2950368,
      "componentType": 5126,
      "count": 65532,
      "max": [
        0.9998393654823303,
        0.9979692697525024,
        0.9965986013412476
      ],
      "min": [
        -0.9998393654823303,
        -0.9979692697525024,
        -0.9965986013412476
      ],
      "type": "VEC3"
    },
    {
      "bufferView": 3,
      "byteOffset": 1442656,
      "componentType": 5126,
      "count": 65532,
      "max": [
        0.9921568632125854,
        0.9137254953384399,
        0.8627451062202454,
        1.0
      ],
      "min": [
        0.06666667014360428,
        0.01568627543747425,
        0.0,
        1.0
      ],
      "type": "VEC4"
    },
    {
      "bufferView": 1,
      "byteOffset": 2178432,
      "componentType": 5126,
      "count": 65532,
      "max": [
        1.0,
        1.0
      ],
      "min": [
        0.0,
        0.0
      ],
      "type": "VEC2"
    },
    {
      "bufferView": 1,
      "byteOffset": 2702688,
      "componentType": 5126,
      "count": 65532,
      "max": [
        1.0,
        1.0
      ],
      "min": [
        0.0,
        0.0
      ],
      "type": "VEC2"
    },
    {
      "bufferView": 0,
      "byteOffset": 901104,
      "componentType": 5125,
      "count": 98298,
      "type": "SCALAR"
    },
    {
      "bufferView": 2,
      "byteOffset": 3736752,
      "componentType": 5126,
      "count": 65532,
      "max": [
        2.485093116760254,
        1.947393774986267,
        1.5040689706802368
      ],
      "min": [
        0.7575716376304626,
        -0.3913257420063019,
        -0.7573754191398621
      ],
      "type": "VEC3"
    },
    {
      "bufferView": 2,
      "byteOffset": 4523136,
      "componentType": 5126,
      "count": 65532,
      "max": [
        0.9998900294303894,
        0.9999535083770752,
        0.9998559355735779
      ],
      "min": [
        -0.9998900294303894,
        -0.9999535083770752,
        -0.9998559355735779
      ],
      "type": "VEC3"
    },
    {
      "bufferView": 3,
      "byteOffset": 2491168,
      "componentType": 5126,
      "count": 65532,
      "max": [
        0.9647058844566345,
        0.9058823585510254,
        0.8470588326454163,
        1.0
      ],
      "min": [
        0.0941176488995552,
        0.019607843831181526,
        0.0,
        1.0
      ],
      "type": "VEC4"
    },
    {
      "bufferView": 1,
      "byteOffset": 3226944,
      "componentType": 5126,
      "count": 65532,
      "max": [
        1.0,
        1.0
      ],
      "min": [
        0.0,
        0.0
      ],
      "type": "VEC2"
    },
    {
      "bufferView": 1,
      "byteOffset": 3751200,
      "componentType": 5126,
      "count": 65532,
      "max": [
        1.0,
        1.0
      ],
      "min": [
        0.0,
        0.0
      ],
      "type": "VEC2"
    },
    {
      "bufferView": 0,
      "byteOffset": 1294296,
      "componentType": 5125,
      "count": 98298,
      "type": "SCALAR"
    },
    {
      "bufferView": 2,
      "byteOffset": 5309520,
      "componentType": 5126,
      "count": 53936,
      "max": [
        2.2386040687561035,
        2.0787291526794434,
        0.9020182490348816
      ],
      "min": [
        0.8055664300918579,
        0.051706600934267044,
        -0.8541128039360046
      ],
      "type": "VEC3"
    },
    {
      "bufferView": 2,
      "byteOffset": 5956752,
      "componentType": 5126,
      "count": 53936,
      "max": [
        0.9999725818634033,
        0.9973529577255249,
        0.9991046190261841
      ],
      "min": [
        -0.9999725818634033,
        -0.9973529577255249,
        -0.9991046190261841
      ],
      "type": "VEC3"
    },
    {
      "bufferView": 3,
      "byteOffset": 3539680,
      "componentType": 5126,
      "count": 53936,
      "max": [
        0.9764705896377563,
        0.9137254953384399,
        0.8627451062202454,
        1.0
      ],
      "min": [
        0.21176470816135406,
        0.05098039284348488,
        0.0,
        1.0
      ],
      "type": "VEC4"
    },
    {
      "bufferView": 1,
      "byteOffset": 4275456,
      "componentType": 5126,
      "count": 53936,
      "max": [
        1.0,
        1.0
      ],
      "min": [
        0.0,
        0.0
      ],
      "type": "VEC2"
    },
    {
      "bufferView": 1,
      "byteOffset": 4706944,
      "componentType": 5126,
      "count": 53936,
      "max": [
        1.0,
        1.0
      ],
      "min": [
        0.0,
        0.0
      ],
      "type": "VEC2"
    },
    {
      "bufferView": 0,
      "byteOffset": 1687488,
      "componentType": 5125,
      "count": 80904,
      "type": "SCALAR"
    },
    {
      "bufferView": 2,
      "byteOffset": 6603984,
      "componentType": 5126,
      "count": 6928,
      "max": [
        3.3639683723449707,
        0.39844489097595215,
        3.2780494689941406
      ],
      "min": [
        -0.22492745518684387,
        -0.06809226423501968,
        -2.3672518730163574
      ],
      "type": "VEC3"
    },
    {
      "bufferView": 2,
      "byteOffset": 6687120,
      "componentType": 5126,
      "count": 6928,
      "max": [
        0.0,
        1.0,
        0.0
      ],
      "min": [
        0.0,
        1.0,
        0.0
      ],
      "type": "VEC3"
    },
    {
      "bufferView": 3,
      "byteOffset": 4402656,
      "componentType": 5126,
      "count": 6928,
      "max": [
        0.0,
        0.03529411926865578,
        0.01568627543747425,
        0.9960784316062927
      ],
      "min": [
        0.0,
        0.03529411926865578,
        0.01568627543747425,
        0.0
      ],
      "type": "VEC4"
    },
    {
      "bufferView": 1,
      "byteOffset": 5138432,
      "componentType": 5126,
      "count": 6928,
      "max": [
        1.0,
        1.0
      ],
      "min": [
        0.0,
        0.0
      ],
      "type": "VEC2"
    },
    {
      "bufferView": 1,
      "byteOffset": 5193856,
      "componentType": 5126,
      "count": 6928,
      "max": [
        1.0,
        1.0
      ],
      "min": [
        0.0,
        0.0
      ],
      "type": "VEC2"
    },
    {
      "bufferView": 1,
      "byteOffset": 5249280,
      "componentType": 5126,
      "count": 6928,
      "max": [
        0.0,
        87.90934753417969
      ],
      "min": [
        0.0,
        87.90934753417969
      ],
      "type": "VEC2"
    },
    {
      "bufferView": 1,
      "byteOffset": 5304704,
      "componentType": 5126,
      "count": 6928,
      "max": [
        0.21453551948070526,
        0.3871597349643707
      ],
      "min": [
        -3.3502347469329834,
        -0.058691948652267456
      ],
      "type": "VEC2"
    },
    {
      "bufferView": 1,
      "byteOffset": 5360128,
      "componentType": 5126,
      "count": 6928,
      "max": [
        3.2707810401916504,
        0.0
      ],
      "min": [
        -2.355306386947632,
        0.0
      ],
      "type": "VEC2"
    },
    {
      "bufferView": 0,
      "byteOffset": 2011104,
      "componentType": 5125,
      "count": 10392,
      "type": "SCALAR"
    }
  ],
  "asset": {
    "extras": {
      "author": "Anna Zhilyaeva (https://sketchfab.com/AnnaDreamBrush)",
      "license": "CC-BY-4.0 (http://creativecommons.org/licenses/by/4.0/)",
      "source": "https://sketchfab.com/3d-models/cat-b685e5b5b10c45c4a5d8ca489cc49b4e",
      "title": "Cat"
    },
    "generator": "Sketchfab-12.67.0",
    "version": "2.0"
  },
  "bufferViews": [
    {
      "buffer": 0,
      "byteLength": 2052672,
      "name": "floatBufferViews",
      "target": 34963
    },
    {
      "buffer": 0,
      "byteLength": 5415552,
      "byteOffset": 2052672,
      "byteStride": 8,
      "name": "floatBufferViews",
      "target": 34962
    },
    {
      "buffer": 0,
      "byteLength": 6770256,
      "byteOffset": 7468224,
      "byteStride": 12,
      "name": "floatBufferViews",
      "target": 34962
    },
    {
      "buffer": 0,
      "byteLength": 4513504,
      "byteOffset": 14238480,
      "byteStride": 16,
      "name": "floatBufferViews",
      "target": 34962
    }
  ],
  "buffers": [
    {
      "byteLength": 18751984,
      "uri": "scene.bin"
    }
  ],
  "images": [
    {
      "uri": "textures/Highlighter_baseColor.png"
    },
    {
      "uri": "textures/SoftHighlighter_baseColor.png"
    },
    {
      "uri": "textures/CoarseBristles_baseColor.png"
    },
    {
      "uri": "textures/Embers_baseColor.png"
    }
  ],
  "materials": [
    {
      "doubleSided": true,
      "emissiveFactor": [
        1.0,
        1.0,
        1.0
      ],
      "name": "DoubleTaperedFlat",
      "pbrMetallicRoughness": {
        "metallicFactor": 0.0
      }
    },
    {
      "alphaMode": "BLEND",
      "doubleSided": true,
      "emissiveFactor": [
        1.0,
        1.0,
        1.0
      ],
      "name": "Highlighter",
      "pbrMetallicRoughness": {
        "baseColorTexture": {
          "index": 0
        },
        "metallicFactor": 0.0
      }
    },
    {
      "alphaMode": "BLEND",
      "doubleSided": true,
      "emissiveFactor": [
        1.0,
        1.0,
        1.0
      ],
      "name": "SoftHighlighter",
      "pbrMetallicRoughness": {
        "baseColorTexture": {
          "index": 1
        },
        "metallicFactor": 0.0
      }
    },
    {
      "doubleSided": true,
      "emissiveFactor": [
        1.0,
        1.0,
        1.0
      ],
      "name": "DoubleTaperedMarker",
      "pbrMetallicRoughness": {
        "metallicFactor": 0.0
      }
    },
    {
      "alphaCutoff": 0.2,
      "alphaMode": "MASK",
      "doubleSided": true,
      "emissiveFactor": [
        1.0,
        1.0,
        1.0
      ],
      "name": "CoarseBristles",
      "pbrMetallicRoughness": {
        "baseColorTexture": {
          "index": 2
        },
        "metallicFactor": 0.0
      }
    },
    {
      "alphaMode": "BLEND",
      "doubleSided": true,
      "emissiveFactor": [
        1.0,
        1.0,
        1.0
      ],
      "name": "Embers",
      "pbrMetallicRoughness": {
        "baseColorTexture": {
          "index": 3
        },
        "metallicFactor": 0.0
      }
    }
  ],
  "meshes": [
    {
      "name": "Meow_DoubleTaperedFlat_geo_DoubleTaperedFlat_0",
      "primitives": [
        {
          "attributes": {
            "COLOR_0": 2,
            "NORMAL": 1,
            "POSITION": 0,
            "TEXCOORD_0": 3,
            "TEXCOORD_1": 4,
            "TEXCOORD_2": 5,
            "TEXCOORD_3": 6
          },
          "indices": 7,
          "material": 0,
          "mode": 4
        }
      ]
    },
    {
      "name": "Meow_Highlighter_geo_Highlighter_0",
      "primitives": [
        {
          "attributes": {
            "COLOR_0": 10,
            "NORMAL": 9,
            "POSITION": 8,
            "TEXCOORD_0": 11,
            "TEXCOORD_1": 12
          },
          "indices": 13,
          "material": 1,
          "mode": 4
        }
      ]
    },
    {
      "name": "Meow_SoftHighlighter_geo_SoftHighlighter_0",
      "primitives": [
        {
          "attributes": {
            "COLOR_0": 16,
            "NORMAL": 15,
            "POSITION": 14,
            "TEXCOORD_0": 17,
            "TEXCOORD_1": 18
          },
          "indices": 19,
          "material": 2,
          "mode": 4
        }
      ]
    },
    {
      "name": "Meow_DoubleTaperedMarker_geo_DoubleTaperedMarker_0",
      "primitives": [
        {
          "attributes": {
            "COLOR_0": 22,
            "NORMAL": 21,
            "POSITION": 20,
            "TEXCOORD_0": 23,
            "TEXCOORD_1": 24,
            "TEXCOORD_2": 25,
            "TEXCOORD_3": 26
          },
          "indices": 27,
          "material": 3,
          "mode": 4
        }
      ]
    },
    {
      "name": "Meow_CoarseBristles_geo_CoarseBristles_0",
      "primitives": [
        {
          "attributes": {
            "COLOR_0": 30,
            "NORMAL": 29,
            "POSITION": 28,
            "TEXCOORD_0": 31,
            "TEXCOORD_1": 32
          },
          "indices": 33,
          "material": 4,
          "mode": 4
        }
      ]
    },
    {
      "name": "Meow_CoarseBristles_geo_CoarseBristles_0",
      "primitives": [
        {
          "attributes": {
            "COLOR_0": 36,
            "NORMAL": 35,
            "POSITION": 34,
            "TEXCOORD_0": 37,
            "TEXCOORD_1": 38
          },
          "indices": 39,
          "material": 4,
          "mode": 4
        }
      ]
    },
    {
      "name": "Meow_CoarseBristles_geo_CoarseBristles_0",
      "primitives": [
        {
          "attributes": {
            "COLOR_0": 42,
            "NORMAL": 41,
            "POSITION": 40,
            "TEXCOORD_0": 43,
            "TEXCOORD_1": 44
          },
          "indices": 45,
          "material": 4,
          "mode": 4
        }
      ]
    },
    {
      "name": "Meow_Embers_geo_Embers_0",
      "primitives": [
        {
          "attributes": {
            "COLOR_0": 48,
            "NORMAL": 47,
            "POSITION": 46,
            "TEXCOORD_0": 49,
            "TEXCOORD_1": 50,
            "TEXCOORD_2": 51,
            "TEXCOORD_3": 52,
            "TEXCOORD_4": 53
          },
          "indices": 54,
          "material": 5,
          "mode": 4
        }
      ]
    }
  ],
  "nodes": [
    {
      "children": [
        1
      ],
      "matrix": [
        0.27891263365745544,
        5.688274090847983e-33,
        4.4852571601327546e-17,
        0.0,
        4.4852571601327546e-17,
        -1.7078470256364168e-17,
        -0.27891263365745544,
        0.0,
        -2.9418463595744946e-33,
        0.27891263365745544,
        -1.7078470256364168e-17,
        0.0,
        0.0,
        -1.3877787807814452e-16,
        -2.2204460492503136e-16,
        1.0
      ],
      "name": "Sketchfab_model"
    },
    {
      "children": [
        2
      ],
      "matrix": [
        1.0,
        0.0,
        0.0,
        0.0,
        0.0,
        0.0,
        1.0,
        0.0,
        0.0,
        -1.0,
        0.0,
        0.0,
        0.0,
        0.0,
        0.0,
        1.0
      ],
      "name": "Meow.fbx"
    },
    {
      "children": [
        3,
        5,
        7,
        9,
        11,
        15
      ],
      "name": "RootNode"
    },
    {
      "children": [
        4
      ],
      "name": "Meow_DoubleTaperedFlat_geo"
    },
    {
      "mesh": 0,
      "name": "Meow_DoubleTaperedFlat_geo_DoubleTaperedFlat_0"
    },
    {
      "children": [
        6
      ],
      "name": "Meow_Highlighter_geo"
    },
    {
      "mesh": 1,
      "name": "Meow_Highlighter_geo_Highlighter_0"
    },
    {
      "children": [
        8
      ],
      "name": "Meow_SoftHighlighter_geo"
    },
    {
      "mesh": 2,
      "name": "Meow_SoftHighlighter_geo_SoftHighlighter_0"
    },
    {
      "children": [
        10
      ],
      "name": "Meow_DoubleTaperedMarker_geo"
    },
    {
      "mesh": 3,
      "name": "Meow_DoubleTaperedMarker_geo_DoubleTaperedMarker_0"
    },
    {
      "children": [
        12,
        13,
        14
      ],
      "name": "Meow_CoarseBristles_geo"
    },
    {
      "mesh": 4,
      "name": "Meow_CoarseBristles_geo_CoarseBristles_0"
    },
    {
      "mesh": 5,
      "name": "Meow_CoarseBristles_geo_CoarseBristles_0"
    },
    {
      "mesh": 6,
      "name": "Meow_CoarseBristles_geo_CoarseBristles_0"
    },
    {
      "children": [
        16
      ],
      "name": "Meow_Embers_geo"
    },
    {
      "mesh": 7,
      "name": "Meow_Embers_geo_Embers_0"
    }
  ],
  "samplers": [
    {
      "magFilter": 9729,
      "minFilter": 9987,
      "wrapS": 10497,
      "wrapT": 10497
    }
  ],
  "scene": 0,
  "scenes": [
    {
      "name": "Sketchfab_Scene",
      "nodes": [
        0
      ]
    }
  ],
  "textures": [
    {
      "sampler": 0,
      "source": 0
    },
    {
      "sampler": 0,
      "source": 1
    },
    {
      "sampler": 0,
      "source": 2
    },
    {
      "sampler": 0,
      "source": 3
    }
  ]
}
